<?xml version="1.0" encoding="UTF-8" standalone="no"?>
<svg version="1.0" xmlns="http://www.w3.org/2000/svg" xmlns:svg="http://www.w3.org/2000/svg" width="260" height="260" viewBox="0 0 260 260" >
  <path
     d="m 111,3 c -19.5,3 -43,13 -59,26 -50,39.5 -63.2,112.9 -30.6,168.6 18.6,31.8 51.1,54.3 88,60.7 12.8,2.2 36.9,2 49.3,-0.4 37.5,-7.3 67.1,-29.6 85.2,-64.2 6.6,-12.5 12.4,-30.1 13.3,-39.9 0.2,-3 0,-3.5 -1.7,-3.2 -3.2,0.6 -4.1,2.1 -7.8,13.4 -4.4,13.2 -8.8,22 -16.2,32.3 -18.1,25.4 -44.4,42.5 -74.2,48.1 -13.5,2.5 -38.5,1.5 -51.3,-2.1 -38,-10.6 -68.5,-39.8 -80.5,-77 -4,-12.8 -5,-21.6 -4.4,-38.7 0.7,-22.1 5.6,-38.3 16.9,-56.6 6.3,-10.1 23.2,-27.9 32.7,-34.2 39.5,-26.5 89,-27 128.5,-1.1 14.6,9.6 30.5,27 38.7,42.5 1.7,3.2 2.9,6.1 2.7,6.2 -0.3,0.4 -53.7,19.9 -83,30.5 l -10.8,3.9 -0.9,-2.3 c -0.5,-1.2 -2.3,-18 -4,-37.2 -1.7,-19.3 -3.3,-35.8 -3.6,-36.8 -0.3,-0.9 -1.4,-1.7 -2.4,-1.7 -2.1,0 -2.2,0.5 -4.5,26 -3.8,40.7 -4.8,50.5 -5.4,51.2 -0.4,0.4 -15.9,-3.5 -34.5,-8.7 -29.8,-8.3 -34.2,-9.3 -35.5,-8 -0.9,0.9 -1.1,1.8 -0.5,2.4 0.6,0.5 13.3,7.1 28.3,14.6 14.9,7.5 27,14.1 27,14.6 0,0.5 -12.5,7.1 -27.5,14.6 -19.4,9.7 -27.5,14.3 -27.5,15.4 0,0.9 0.6,1.9 1.3,2.2 0.6,0.2 15.6,-3.5 33.2,-8.4 17.5,-4.9 33,-8.9 34,-8.9 1.9,0 2.2,0.7 2.8,7.7 0.7,8.5 2.8,30.2 5.1,53.6 0.8,8.1 1.5,15 1.5,15.3 0,0.3 1,0.4 2.2,0.2 2.2,-0.3 2.3,-1 6,-38.3 2,-20.9 3.7,-38.1 3.7,-38.3 0.4,-1.2 3.3,-0.5 52.8,13.4 8.9,2.5 16.7,4.3 17.3,3.9 2.9,-1.8 -1.4,-4.7 -26.5,-17.5 -14.8,-7.6 -27,-14.4 -27,-15 0,-0.6 19.2,-10.5 42.7,-21.9 23.5,-11.4 43.4,-21.3 44.1,-22 1.3,-1 1.3,-1.8 0.2,-5.4 -2.5,-8.5 -7.7,-19.3 -13,-27.2 -17.9,-27 -46.6,-45.5 -79.5,-52 -9,-2 -35.1,-2 -45.5,-0.5 z"
     style="fill:#116bfe;fill-opacity:1;stroke:none;stroke-width:0.1" />
</svg>
